<svg xmlns="http://www.w3.org/2000/svg" viewBox="0 0 240 336" width="240" height="336">
<path d="M18,2 H222 A16,16 0 0 1 238,18 V318 A16,16 0 0 1 222,334 H18 A16,16 0 0 1 2,318 V18 A16,16 0 0 1 18,2 Z" fill="#FFFFFF" stroke="#E3E0D8" stroke-width="2"/>
<path d="M18,6 H222 A12,12 0 0 1 234,18 V318 A12,12 0 0 1 222,330 H18 A12,12 0 0 1 6,318 V18 A12,12 0 0 1 18,6 Z" fill="none" stroke="#1F2430" stroke-width="0.8" opacity="0.18"/>
<g><path d="M205 33V309Q297 266 381.0 244.5Q465 223 547 223Q719 223 815.0 318.5Q911 414 928 602Q860 552 783.0 527.0Q706 502 616 502Q387 502 246.5 635.5Q106 769 106 987Q106 1228 262.5 1373.0Q419 1518 682 1518Q974 1518 1134.0 1321.0Q1294 1124 1294 764Q1294 394 1107.0 182.5Q920 -29 594 -29Q489 -29 393.0 -13.5Q297 2 205 33ZM680 752Q781 752 832.0 817.5Q883 883 883 1014Q883 1144 832.0 1210.0Q781 1276 680 1276Q579 1276 528.0 1210.0Q477 1144 477 1014Q477 883 528.0 817.5Q579 752 680 752Z" fill="#1F2430" transform="translate(14.56,38) scale(0.01465,-0.01465)"/><path d="M50,8 C60,8 68,16 68,26 C68,32 65,37 61,40 C65,37 70,36 74,36 C84,36 92,44 92,54 C92,64 84,72 74,72 C67,72 61,68 57,62 C58,72 63,84 71,92 L29,92 C37,84 42,72 43,62 C39,68 33,72 26,72 C16,72 8,64 8,54 C8,44 16,36 26,36 C30,36 35,37 39,40 C35,37 32,32 32,26 C32,16 40,8 50,8 Z" fill="#1F2430" transform="translate(25,58) scale(0.20000) translate(-50,-50)"/></g>
<g transform="rotate(180 120.0 168.0)"><path d="M205 33V309Q297 266 381.0 244.5Q465 223 547 223Q719 223 815.0 318.5Q911 414 928 602Q860 552 783.0 527.0Q706 502 616 502Q387 502 246.5 635.5Q106 769 106 987Q106 1228 262.5 1373.0Q419 1518 682 1518Q974 1518 1134.0 1321.0Q1294 1124 1294 764Q1294 394 1107.0 182.5Q920 -29 594 -29Q489 -29 393.0 -13.5Q297 2 205 33ZM680 752Q781 752 832.0 817.5Q883 883 883 1014Q883 1144 832.0 1210.0Q781 1276 680 1276Q579 1276 528.0 1210.0Q477 1144 477 1014Q477 883 528.0 817.5Q579 752 680 752Z" fill="#1F2430" transform="translate(14.56,38) scale(0.01465,-0.01465)"/><path d="M50,8 C60,8 68,16 68,26 C68,32 65,37 61,40 C65,37 70,36 74,36 C84,36 92,44 92,54 C92,64 84,72 74,72 C67,72 61,68 57,62 C58,72 63,84 71,92 L29,92 C37,84 42,72 43,62 C39,68 33,72 26,72 C16,72 8,64 8,54 C8,44 16,36 26,36 C30,36 35,37 39,40 C35,37 32,32 32,26 C32,16 40,8 50,8 Z" fill="#1F2430" transform="translate(25,58) scale(0.20000) translate(-50,-50)"/></g>
<path d="M50,8 C60,8 68,16 68,26 C68,32 65,37 61,40 C65,37 70,36 74,36 C84,36 92,44 92,54 C92,64 84,72 74,72 C67,72 61,68 57,62 C58,72 63,84 71,92 L29,92 C37,84 42,72 43,62 C39,68 33,72 26,72 C16,72 8,64 8,54 C8,44 16,36 26,36 C30,36 35,37 39,40 C35,37 32,32 32,26 C32,16 40,8 50,8 Z" fill="#1F2430" transform="translate(84,84.0) scale(0.40000) translate(-50,-50)"/>
<path d="M50,8 C60,8 68,16 68,26 C68,32 65,37 61,40 C65,37 70,36 74,36 C84,36 92,44 92,54 C92,64 84,72 74,72 C67,72 61,68 57,62 C58,72 63,84 71,92 L29,92 C37,84 42,72 43,62 C39,68 33,72 26,72 C16,72 8,64 8,54 C8,44 16,36 26,36 C30,36 35,37 39,40 C35,37 32,32 32,26 C32,16 40,8 50,8 Z" fill="#1F2430" transform="translate(156,84.0) scale(0.40000) translate(-50,-50)"/>
<path d="M50,8 C60,8 68,16 68,26 C68,32 65,37 61,40 C65,37 70,36 74,36 C84,36 92,44 92,54 C92,64 84,72 74,72 C67,72 61,68 57,62 C58,72 63,84 71,92 L29,92 C37,84 42,72 43,62 C39,68 33,72 26,72 C16,72 8,64 8,54 C8,44 16,36 26,36 C30,36 35,37 39,40 C35,37 32,32 32,26 C32,16 40,8 50,8 Z" fill="#1F2430" transform="translate(84,140.0) scale(0.40000) translate(-50,-50)"/>
<path d="M50,8 C60,8 68,16 68,26 C68,32 65,37 61,40 C65,37 70,36 74,36 C84,36 92,44 92,54 C92,64 84,72 74,72 C67,72 61,68 57,62 C58,72 63,84 71,92 L29,92 C37,84 42,72 43,62 C39,68 33,72 26,72 C16,72 8,64 8,54 C8,44 16,36 26,36 C30,36 35,37 39,40 C35,37 32,32 32,26 C32,16 40,8 50,8 Z" fill="#1F2430" transform="translate(156,140.0) scale(0.40000) translate(-50,-50)"/>
<path d="M50,8 C60,8 68,16 68,26 C68,32 65,37 61,40 C65,37 70,36 74,36 C84,36 92,44 92,54 C92,64 84,72 74,72 C67,72 61,68 57,62 C58,72 63,84 71,92 L29,92 C37,84 42,72 43,62 C39,68 33,72 26,72 C16,72 8,64 8,54 C8,44 16,36 26,36 C30,36 35,37 39,40 C35,37 32,32 32,26 C32,16 40,8 50,8 Z" fill="#1F2430" transform="translate(120,168.0) scale(0.40000) translate(-50,-50)"/>
<path d="M50,8 C60,8 68,16 68,26 C68,32 65,37 61,40 C65,37 70,36 74,36 C84,36 92,44 92,54 C92,64 84,72 74,72 C67,72 61,68 57,62 C58,72 63,84 71,92 L29,92 C37,84 42,72 43,62 C39,68 33,72 26,72 C16,72 8,64 8,54 C8,44 16,36 26,36 C30,36 35,37 39,40 C35,37 32,32 32,26 C32,16 40,8 50,8 Z" fill="#1F2430" transform="translate(84,196.0) scale(0.40000) translate(-50,-50) rotate(180 50 50)"/>
<path d="M50,8 C60,8 68,16 68,26 C68,32 65,37 61,40 C65,37 70,36 74,36 C84,36 92,44 92,54 C92,64 84,72 74,72 C67,72 61,68 57,62 C58,72 63,84 71,92 L29,92 C37,84 42,72 43,62 C39,68 33,72 26,72 C16,72 8,64 8,54 C8,44 16,36 26,36 C30,36 35,37 39,40 C35,37 32,32 32,26 C32,16 40,8 50,8 Z" fill="#1F2430" transform="translate(156,196.0) scale(0.40000) translate(-50,-50) rotate(180 50 50)"/>
<path d="M50,8 C60,8 68,16 68,26 C68,32 65,37 61,40 C65,37 70,36 74,36 C84,36 92,44 92,54 C92,64 84,72 74,72 C67,72 61,68 57,62 C58,72 63,84 71,92 L29,92 C37,84 42,72 43,62 C39,68 33,72 26,72 C16,72 8,64 8,54 C8,44 16,36 26,36 C30,36 35,37 39,40 C35,37 32,32 32,26 C32,16 40,8 50,8 Z" fill="#1F2430" transform="translate(84,252.0) scale(0.40000) translate(-50,-50) rotate(180 50 50)"/>
<path d="M50,8 C60,8 68,16 68,26 C68,32 65,37 61,40 C65,37 70,36 74,36 C84,36 92,44 92,54 C92,64 84,72 74,72 C67,72 61,68 57,62 C58,72 63,84 71,92 L29,92 C37,84 42,72 43,62 C39,68 33,72 26,72 C16,72 8,64 8,54 C8,44 16,36 26,36 C30,36 35,37 39,40 C35,37 32,32 32,26 C32,16 40,8 50,8 Z" fill="#1F2430" transform="translate(156,252.0) scale(0.40000) translate(-50,-50) rotate(180 50 50)"/>
</svg>