<svg xmlns="http://www.w3.org/2000/svg" viewBox="0 0 240 336" width="240" height="336">
<path d="M18,2 H222 A16,16 0 0 1 238,18 V318 A16,16 0 0 1 222,334 H18 A16,16 0 0 1 2,318 V18 A16,16 0 0 1 18,2 Z" fill="#FFFFFF" stroke="#E3E0D8" stroke-width="2"/>
<path d="M18,6 H222 A12,12 0 0 1 234,18 V318 A12,12 0 0 1 222,330 H18 A12,12 0 0 1 6,318 V18 A12,12 0 0 1 18,6 Z" fill="none" stroke="#1F2430" stroke-width="0.8" opacity="0.18"/>
<g><path d="M188 1493H573V145Q573 -134 421.5 -272.0Q270 -410 -37 -410H-115V-119H-55Q65 -119 126.5 -52.0Q188 15 188 145Z" fill="#1F2430" transform="translate(19.42,38) scale(0.01465,-0.01465)"/><path d="M50,8 C60,8 68,16 68,26 C68,32 65,37 61,40 C65,37 70,36 74,36 C84,36 92,44 92,54 C92,64 84,72 74,72 C67,72 61,68 57,62 C58,72 63,84 71,92 L29,92 C37,84 42,72 43,62 C39,68 33,72 26,72 C16,72 8,64 8,54 C8,44 16,36 26,36 C30,36 35,37 39,40 C35,37 32,32 32,26 C32,16 40,8 50,8 Z" fill="#1F2430" transform="translate(25,58) scale(0.20000) translate(-50,-50)"/></g>
<g transform="rotate(180 120.0 168.0)"><path d="M188 1493H573V145Q573 -134 421.5 -272.0Q270 -410 -37 -410H-115V-119H-55Q65 -119 126.5 -52.0Q188 15 188 145Z" fill="#1F2430" transform="translate(19.42,38) scale(0.01465,-0.01465)"/><path d="M50,8 C60,8 68,16 68,26 C68,32 65,37 61,40 C65,37 70,36 74,36 C84,36 92,44 92,54 C92,64 84,72 74,72 C67,72 61,68 57,62 C58,72 63,84 71,92 L29,92 C37,84 42,72 43,62 C39,68 33,72 26,72 C16,72 8,64 8,54 C8,44 16,36 26,36 C30,36 35,37 39,40 C35,37 32,32 32,26 C32,16 40,8 50,8 Z" fill="#1F2430" transform="translate(25,58) scale(0.20000) translate(-50,-50)"/></g>
<path d="M-150 -358V-123H-20Q-14 -217 24.5 -261.0Q63 -305 139 -305Q236 -305 274.5 -230.5Q313 -156 313 49V1372H96V1493H891V1372H700V41Q700 -202 577.5 -314.0Q455 -426 188 -426Q105 -426 21.0 -409.0Q-63 -392 -150 -358Z" fill="#1F2430" transform="translate(91.61,182) scale(0.05859,-0.05859)"/><path d="M50,8 C60,8 68,16 68,26 C68,32 65,37 61,40 C65,37 70,36 74,36 C84,36 92,44 92,54 C92,64 84,72 74,72 C67,72 61,68 57,62 C58,72 63,84 71,92 L29,92 C37,84 42,72 43,62 C39,68 33,72 26,72 C16,72 8,64 8,54 C8,44 16,36 26,36 C30,36 35,37 39,40 C35,37 32,32 32,26 C32,16 40,8 50,8 Z" fill="#1F2430" transform="translate(120.0,232) scale(0.44000) translate(-50,-50)"/>
</svg>