<svg xmlns="http://www.w3.org/2000/svg" viewBox="0 0 240 336" width="240" height="336">
<path d="M18,2 H222 A16,16 0 0 1 238,18 V318 A16,16 0 0 1 222,334 H18 A16,16 0 0 1 2,318 V18 A16,16 0 0 1 18,2 Z" fill="#FFFFFF" stroke="#E3E0D8" stroke-width="2"/>
<path d="M18,6 H222 A12,12 0 0 1 234,18 V318 A12,12 0 0 1 222,330 H18 A12,12 0 0 1 6,318 V18 A12,12 0 0 1 18,6 Z" fill="none" stroke="#D4213D" stroke-width="0.8" opacity="0.18"/>
<g><path d="M911 -27H881Q512 -27 307.0 177.0Q102 381 102 745Q102 1108 306.5 1314.0Q511 1520 870 1520Q1233 1520 1435.5 1316.0Q1638 1112 1638 745Q1638 493 1530.5 311.0Q1423 129 1221 37L1522 -299H1155ZM870 1241Q694 1241 597.0 1111.0Q500 981 500 745Q500 505 595.0 377.5Q690 250 870 250Q1047 250 1144.0 380.0Q1241 510 1241 745Q1241 981 1144.0 1111.0Q1047 1241 870 1241Z" fill="#D4213D" transform="translate(12.25,38) scale(0.01465,-0.01465)"/><path d="M50,6 C58,28 72,42 90,50 C72,58 58,72 50,94 C42,72 28,58 10,50 C28,42 42,28 50,6 Z" fill="#D4213D" transform="translate(25,58) scale(0.20000) translate(-50,-50)"/></g>
<g transform="rotate(180 120.0 168.0)"><path d="M911 -27H881Q512 -27 307.0 177.0Q102 381 102 745Q102 1108 306.5 1314.0Q511 1520 870 1520Q1233 1520 1435.5 1316.0Q1638 1112 1638 745Q1638 493 1530.5 311.0Q1423 129 1221 37L1522 -299H1155ZM870 1241Q694 1241 597.0 1111.0Q500 981 500 745Q500 505 595.0 377.5Q690 250 870 250Q1047 250 1144.0 380.0Q1241 510 1241 745Q1241 981 1144.0 1111.0Q1047 1241 870 1241Z" fill="#D4213D" transform="translate(12.25,38) scale(0.01465,-0.01465)"/><path d="M50,6 C58,28 72,42 90,50 C72,58 58,72 50,94 C42,72 28,58 10,50 C28,42 42,28 50,6 Z" fill="#D4213D" transform="translate(25,58) scale(0.20000) translate(-50,-50)"/></g>
<path d="M885 -29Q507 -23 296.5 181.0Q86 385 86 745Q86 1107 300.5 1313.5Q515 1520 891 1520Q1268 1520 1482.0 1314.0Q1696 1108 1696 745Q1696 427 1531.5 229.0Q1367 31 1063 -16Q1116 -73 1192.0 -98.0Q1268 -123 1389 -123H1440V-369H1411Q1221 -369 1094.0 -287.0Q967 -205 885 -29ZM891 92Q1082 92 1175.0 253.0Q1268 414 1268 745Q1268 1077 1175.0 1238.0Q1082 1399 891 1399Q701 1399 607.5 1236.5Q514 1074 514 745Q514 417 607.5 254.5Q701 92 891 92Z" fill="#D4213D" transform="translate(67.73,182) scale(0.05859,-0.05859)"/><path d="M50,6 C58,28 72,42 90,50 C72,58 58,72 50,94 C42,72 28,58 10,50 C28,42 42,28 50,6 Z" fill="#D4213D" transform="translate(120.0,232) scale(0.44000) translate(-50,-50)"/>
</svg>