<svg xmlns="http://www.w3.org/2000/svg" viewBox="0 0 240 336" width="240" height="336">
<path d="M18,2 H222 A16,16 0 0 1 238,18 V318 A16,16 0 0 1 222,334 H18 A16,16 0 0 1 2,318 V18 A16,16 0 0 1 18,2 Z" fill="#FFFFFF" stroke="#E3E0D8" stroke-width="2"/>
<path d="M18,6 H222 A12,12 0 0 1 234,18 V318 A12,12 0 0 1 222,330 H18 A12,12 0 0 1 6,318 V18 A12,12 0 0 1 18,6 Z" fill="none" stroke="#D4213D" stroke-width="0.8" opacity="0.18"/>
<g><path d="M240 266H580V1231L231 1159V1421L578 1493H944V266H1284V0H240Z" fill="#D4213D" transform="translate(7.60,38) scale(0.01221,-0.01221)"/><path d="M942 748Q942 1028 889.5 1142.5Q837 1257 713 1257Q589 1257 536.0 1142.5Q483 1028 483 748Q483 465 536.0 349.0Q589 233 713 233Q836 233 889.0 349.0Q942 465 942 748ZM1327 745Q1327 374 1167.0 172.5Q1007 -29 713 -29Q418 -29 258.0 172.5Q98 374 98 745Q98 1117 258.0 1318.5Q418 1520 713 1520Q1007 1520 1167.0 1318.5Q1327 1117 1327 745Z" fill="#D4213D" transform="translate(25.00,38) scale(0.01221,-0.01221)"/><path d="M50,6 C58,28 72,42 90,50 C72,58 58,72 50,94 C42,72 28,58 10,50 C28,42 42,28 50,6 Z" fill="#D4213D" transform="translate(25,58) scale(0.20000) translate(-50,-50)"/></g>
<g transform="rotate(180 120.0 168.0)"><path d="M240 266H580V1231L231 1159V1421L578 1493H944V266H1284V0H240Z" fill="#D4213D" transform="translate(7.60,38) scale(0.01221,-0.01221)"/><path d="M942 748Q942 1028 889.5 1142.5Q837 1257 713 1257Q589 1257 536.0 1142.5Q483 1028 483 748Q483 465 536.0 349.0Q589 233 713 233Q836 233 889.0 349.0Q942 465 942 748ZM1327 745Q1327 374 1167.0 172.5Q1007 -29 713 -29Q418 -29 258.0 172.5Q98 374 98 745Q98 1117 258.0 1318.5Q418 1520 713 1520Q1007 1520 1167.0 1318.5Q1327 1117 1327 745Z" fill="#D4213D" transform="translate(25.00,38) scale(0.01221,-0.01221)"/><path d="M50,6 C58,28 72,42 90,50 C72,58 58,72 50,94 C42,72 28,58 10,50 C28,42 42,28 50,6 Z" fill="#D4213D" transform="translate(25,58) scale(0.20000) translate(-50,-50)"/></g>
<path d="M50,6 C58,28 72,42 90,50 C72,58 58,72 50,94 C42,72 28,58 10,50 C28,42 42,28 50,6 Z" fill="#D4213D" transform="translate(84,84.0) scale(0.40000) translate(-50,-50)"/>
<path d="M50,6 C58,28 72,42 90,50 C72,58 58,72 50,94 C42,72 28,58 10,50 C28,42 42,28 50,6 Z" fill="#D4213D" transform="translate(156,84.0) scale(0.40000) translate(-50,-50)"/>
<path d="M50,6 C58,28 72,42 90,50 C72,58 58,72 50,94 C42,72 28,58 10,50 C28,42 42,28 50,6 Z" fill="#D4213D" transform="translate(120,112.0) scale(0.40000) translate(-50,-50)"/>
<path d="M50,6 C58,28 72,42 90,50 C72,58 58,72 50,94 C42,72 28,58 10,50 C28,42 42,28 50,6 Z" fill="#D4213D" transform="translate(84,140.0) scale(0.40000) translate(-50,-50)"/>
<path d="M50,6 C58,28 72,42 90,50 C72,58 58,72 50,94 C42,72 28,58 10,50 C28,42 42,28 50,6 Z" fill="#D4213D" transform="translate(156,140.0) scale(0.40000) translate(-50,-50)"/>
<path d="M50,6 C58,28 72,42 90,50 C72,58 58,72 50,94 C42,72 28,58 10,50 C28,42 42,28 50,6 Z" fill="#D4213D" transform="translate(84,196.0) scale(0.40000) translate(-50,-50) rotate(180 50 50)"/>
<path d="M50,6 C58,28 72,42 90,50 C72,58 58,72 50,94 C42,72 28,58 10,50 C28,42 42,28 50,6 Z" fill="#D4213D" transform="translate(156,196.0) scale(0.40000) translate(-50,-50) rotate(180 50 50)"/>
<path d="M50,6 C58,28 72,42 90,50 C72,58 58,72 50,94 C42,72 28,58 10,50 C28,42 42,28 50,6 Z" fill="#D4213D" transform="translate(120,224.0) scale(0.40000) translate(-50,-50) rotate(180 50 50)"/>
<path d="M50,6 C58,28 72,42 90,50 C72,58 58,72 50,94 C42,72 28,58 10,50 C28,42 42,28 50,6 Z" fill="#D4213D" transform="translate(84,252.0) scale(0.40000) translate(-50,-50) rotate(180 50 50)"/>
<path d="M50,6 C58,28 72,42 90,50 C72,58 58,72 50,94 C42,72 28,58 10,50 C28,42 42,28 50,6 Z" fill="#D4213D" transform="translate(156,252.0) scale(0.40000) translate(-50,-50) rotate(180 50 50)"/>
</svg>