<svg xmlns="http://www.w3.org/2000/svg" viewBox="0 0 240 336" width="240" height="336">
<path d="M18,2 H222 A16,16 0 0 1 238,18 V318 A16,16 0 0 1 222,334 H18 A16,16 0 0 1 2,318 V18 A16,16 0 0 1 18,2 Z" fill="#FFFFFF" stroke="#E3E0D8" stroke-width="2"/>
<path d="M18,6 H222 A12,12 0 0 1 234,18 V318 A12,12 0 0 1 222,330 H18 A12,12 0 0 1 6,318 V18 A12,12 0 0 1 18,6 Z" fill="none" stroke="#D4213D" stroke-width="0.8" opacity="0.18"/>
<g><path d="M954 805Q1105 766 1183.5 669.5Q1262 573 1262 424Q1262 202 1092.0 86.5Q922 -29 596 -29Q481 -29 365.5 -10.5Q250 8 137 45V342Q245 288 351.5 260.5Q458 233 561 233Q714 233 795.5 286.0Q877 339 877 438Q877 540 793.5 592.5Q710 645 547 645H393V893H555Q700 893 771.0 938.5Q842 984 842 1077Q842 1163 773.0 1210.0Q704 1257 578 1257Q485 1257 390.0 1236.0Q295 1215 201 1174V1456Q315 1488 427.0 1504.0Q539 1520 647 1520Q938 1520 1082.5 1424.5Q1227 1329 1227 1137Q1227 1006 1158.0 922.5Q1089 839 954 805Z" fill="#D4213D" transform="translate(14.56,38) scale(0.01465,-0.01465)"/><path d="M50,6 C58,28 72,42 90,50 C72,58 58,72 50,94 C42,72 28,58 10,50 C28,42 42,28 50,6 Z" fill="#D4213D" transform="translate(25,58) scale(0.20000) translate(-50,-50)"/></g>
<g transform="rotate(180 120.0 168.0)"><path d="M954 805Q1105 766 1183.5 669.5Q1262 573 1262 424Q1262 202 1092.0 86.5Q922 -29 596 -29Q481 -29 365.5 -10.5Q250 8 137 45V342Q245 288 351.5 260.5Q458 233 561 233Q714 233 795.5 286.0Q877 339 877 438Q877 540 793.5 592.5Q710 645 547 645H393V893H555Q700 893 771.0 938.5Q842 984 842 1077Q842 1163 773.0 1210.0Q704 1257 578 1257Q485 1257 390.0 1236.0Q295 1215 201 1174V1456Q315 1488 427.0 1504.0Q539 1520 647 1520Q938 1520 1082.5 1424.5Q1227 1329 1227 1137Q1227 1006 1158.0 922.5Q1089 839 954 805Z" fill="#D4213D" transform="translate(14.56,38) scale(0.01465,-0.01465)"/><path d="M50,6 C58,28 72,42 90,50 C72,58 58,72 50,94 C42,72 28,58 10,50 C28,42 42,28 50,6 Z" fill="#D4213D" transform="translate(25,58) scale(0.20000) translate(-50,-50)"/></g>
<path d="M50,6 C58,28 72,42 90,50 C72,58 58,72 50,94 C42,72 28,58 10,50 C28,42 42,28 50,6 Z" fill="#D4213D" transform="translate(120,84.0) scale(0.40000) translate(-50,-50)"/>
<path d="M50,6 C58,28 72,42 90,50 C72,58 58,72 50,94 C42,72 28,58 10,50 C28,42 42,28 50,6 Z" fill="#D4213D" transform="translate(120,168.0) scale(0.40000) translate(-50,-50)"/>
<path d="M50,6 C58,28 72,42 90,50 C72,58 58,72 50,94 C42,72 28,58 10,50 C28,42 42,28 50,6 Z" fill="#D4213D" transform="translate(120,252.0) scale(0.40000) translate(-50,-50) rotate(180 50 50)"/>
</svg>