<svg xmlns="http://www.w3.org/2000/svg" viewBox="0 0 240 336" width="240" height="336">
<path d="M18,2 H222 A16,16 0 0 1 238,18 V318 A16,16 0 0 1 222,334 H18 A16,16 0 0 1 2,318 V18 A16,16 0 0 1 18,2 Z" fill="#FFFFFF" stroke="#E3E0D8" stroke-width="2"/>
<path d="M18,6 H222 A12,12 0 0 1 234,18 V318 A12,12 0 0 1 222,330 H18 A12,12 0 0 1 6,318 V18 A12,12 0 0 1 18,6 Z" fill="none" stroke="#D4213D" stroke-width="0.8" opacity="0.18"/>
<g><path d="M741 737Q640 737 589.5 671.5Q539 606 539 475Q539 344 589.5 278.5Q640 213 741 213Q843 213 893.5 278.5Q944 344 944 475Q944 606 893.5 671.5Q843 737 741 737ZM1217 1454V1178Q1122 1223 1038.0 1244.5Q954 1266 874 1266Q702 1266 606.0 1170.5Q510 1075 494 887Q560 936 637.0 960.5Q714 985 805 985Q1034 985 1174.5 851.0Q1315 717 1315 500Q1315 260 1158.0 115.5Q1001 -29 737 -29Q446 -29 286.5 167.5Q127 364 127 725Q127 1095 313.5 1306.5Q500 1518 825 1518Q928 1518 1025.0 1502.0Q1122 1486 1217 1454Z" fill="#D4213D" transform="translate(14.56,38) scale(0.01465,-0.01465)"/><path d="M50,6 C58,28 72,42 90,50 C72,58 58,72 50,94 C42,72 28,58 10,50 C28,42 42,28 50,6 Z" fill="#D4213D" transform="translate(25,58) scale(0.20000) translate(-50,-50)"/></g>
<g transform="rotate(180 120.0 168.0)"><path d="M741 737Q640 737 589.5 671.5Q539 606 539 475Q539 344 589.5 278.5Q640 213 741 213Q843 213 893.5 278.5Q944 344 944 475Q944 606 893.5 671.5Q843 737 741 737ZM1217 1454V1178Q1122 1223 1038.0 1244.5Q954 1266 874 1266Q702 1266 606.0 1170.5Q510 1075 494 887Q560 936 637.0 960.5Q714 985 805 985Q1034 985 1174.5 851.0Q1315 717 1315 500Q1315 260 1158.0 115.5Q1001 -29 737 -29Q446 -29 286.5 167.5Q127 364 127 725Q127 1095 313.5 1306.5Q500 1518 825 1518Q928 1518 1025.0 1502.0Q1122 1486 1217 1454Z" fill="#D4213D" transform="translate(14.56,38) scale(0.01465,-0.01465)"/><path d="M50,6 C58,28 72,42 90,50 C72,58 58,72 50,94 C42,72 28,58 10,50 C28,42 42,28 50,6 Z" fill="#D4213D" transform="translate(25,58) scale(0.20000) translate(-50,-50)"/></g>
<path d="M50,6 C58,28 72,42 90,50 C72,58 58,72 50,94 C42,72 28,58 10,50 C28,42 42,28 50,6 Z" fill="#D4213D" transform="translate(84,84.0) scale(0.40000) translate(-50,-50)"/>
<path d="M50,6 C58,28 72,42 90,50 C72,58 58,72 50,94 C42,72 28,58 10,50 C28,42 42,28 50,6 Z" fill="#D4213D" transform="translate(156,84.0) scale(0.40000) translate(-50,-50)"/>
<path d="M50,6 C58,28 72,42 90,50 C72,58 58,72 50,94 C42,72 28,58 10,50 C28,42 42,28 50,6 Z" fill="#D4213D" transform="translate(84,168.0) scale(0.40000) translate(-50,-50)"/>
<path d="M50,6 C58,28 72,42 90,50 C72,58 58,72 50,94 C42,72 28,58 10,50 C28,42 42,28 50,6 Z" fill="#D4213D" transform="translate(156,168.0) scale(0.40000) translate(-50,-50)"/>
<path d="M50,6 C58,28 72,42 90,50 C72,58 58,72 50,94 C42,72 28,58 10,50 C28,42 42,28 50,6 Z" fill="#D4213D" transform="translate(84,252.0) scale(0.40000) translate(-50,-50) rotate(180 50 50)"/>
<path d="M50,6 C58,28 72,42 90,50 C72,58 58,72 50,94 C42,72 28,58 10,50 C28,42 42,28 50,6 Z" fill="#D4213D" transform="translate(156,252.0) scale(0.40000) translate(-50,-50) rotate(180 50 50)"/>
</svg>