<svg xmlns="http://www.w3.org/2000/svg" viewBox="0 0 240 336" width="240" height="336">
<path d="M18,2 H222 A16,16 0 0 1 238,18 V318 A16,16 0 0 1 222,334 H18 A16,16 0 0 1 2,318 V18 A16,16 0 0 1 18,2 Z" fill="#FFFFFF" stroke="#E3E0D8" stroke-width="2"/>
<path d="M18,6 H222 A12,12 0 0 1 234,18 V318 A12,12 0 0 1 222,330 H18 A12,12 0 0 1 6,318 V18 A12,12 0 0 1 18,6 Z" fill="none" stroke="#D4213D" stroke-width="0.8" opacity="0.18"/>
<g><path d="M137 1493H1262V1276L680 0H305L856 1210H137Z" fill="#D4213D" transform="translate(14.56,38) scale(0.01465,-0.01465)"/><path d="M50,88 C50,88 8,60 8,33 C8,18 19,8 32,8 C41,8 47,13 50,21 C53,13 59,8 68,8 C81,8 92,18 92,33 C92,60 50,88 50,88 Z" fill="#D4213D" transform="translate(25,58) scale(0.20000) translate(-50,-50)"/></g>
<g transform="rotate(180 120.0 168.0)"><path d="M137 1493H1262V1276L680 0H305L856 1210H137Z" fill="#D4213D" transform="translate(14.56,38) scale(0.01465,-0.01465)"/><path d="M50,88 C50,88 8,60 8,33 C8,18 19,8 32,8 C41,8 47,13 50,21 C53,13 59,8 68,8 C81,8 92,18 92,33 C92,60 50,88 50,88 Z" fill="#D4213D" transform="translate(25,58) scale(0.20000) translate(-50,-50)"/></g>
<path d="M50,88 C50,88 8,60 8,33 C8,18 19,8 32,8 C41,8 47,13 50,21 C53,13 59,8 68,8 C81,8 92,18 92,33 C92,60 50,88 50,88 Z" fill="#D4213D" transform="translate(84,84.0) scale(0.40000) translate(-50,-50)"/>
<path d="M50,88 C50,88 8,60 8,33 C8,18 19,8 32,8 C41,8 47,13 50,21 C53,13 59,8 68,8 C81,8 92,18 92,33 C92,60 50,88 50,88 Z" fill="#D4213D" transform="translate(156,84.0) scale(0.40000) translate(-50,-50)"/>
<path d="M50,88 C50,88 8,60 8,33 C8,18 19,8 32,8 C41,8 47,13 50,21 C53,13 59,8 68,8 C81,8 92,18 92,33 C92,60 50,88 50,88 Z" fill="#D4213D" transform="translate(120,126.0) scale(0.40000) translate(-50,-50)"/>
<path d="M50,88 C50,88 8,60 8,33 C8,18 19,8 32,8 C41,8 47,13 50,21 C53,13 59,8 68,8 C81,8 92,18 92,33 C92,60 50,88 50,88 Z" fill="#D4213D" transform="translate(84,168.0) scale(0.40000) translate(-50,-50)"/>
<path d="M50,88 C50,88 8,60 8,33 C8,18 19,8 32,8 C41,8 47,13 50,21 C53,13 59,8 68,8 C81,8 92,18 92,33 C92,60 50,88 50,88 Z" fill="#D4213D" transform="translate(156,168.0) scale(0.40000) translate(-50,-50)"/>
<path d="M50,88 C50,88 8,60 8,33 C8,18 19,8 32,8 C41,8 47,13 50,21 C53,13 59,8 68,8 C81,8 92,18 92,33 C92,60 50,88 50,88 Z" fill="#D4213D" transform="translate(84,252.0) scale(0.40000) translate(-50,-50) rotate(180 50 50)"/>
<path d="M50,88 C50,88 8,60 8,33 C8,18 19,8 32,8 C41,8 47,13 50,21 C53,13 59,8 68,8 C81,8 92,18 92,33 C92,60 50,88 50,88 Z" fill="#D4213D" transform="translate(156,252.0) scale(0.40000) translate(-50,-50) rotate(180 50 50)"/>
</svg>