<svg xmlns="http://www.w3.org/2000/svg" viewBox="0 0 240 336" width="240" height="336">
<path d="M18,2 H222 A16,16 0 0 1 238,18 V318 A16,16 0 0 1 222,334 H18 A16,16 0 0 1 2,318 V18 A16,16 0 0 1 18,2 Z" fill="#FFFFFF" stroke="#E3E0D8" stroke-width="2"/>
<path d="M18,6 H222 A12,12 0 0 1 234,18 V318 A12,12 0 0 1 222,330 H18 A12,12 0 0 1 6,318 V18 A12,12 0 0 1 18,6 Z" fill="none" stroke="#D4213D" stroke-width="0.8" opacity="0.18"/>
<g><path d="M188 1493H573V948L1128 1493H1575L856 786L1649 0H1167L573 588V0H188Z" fill="#D4213D" transform="translate(13.38,38) scale(0.01465,-0.01465)"/><path d="M50,88 C50,88 8,60 8,33 C8,18 19,8 32,8 C41,8 47,13 50,21 C53,13 59,8 68,8 C81,8 92,18 92,33 C92,60 50,88 50,88 Z" fill="#D4213D" transform="translate(25,58) scale(0.20000) translate(-50,-50)"/></g>
<g transform="rotate(180 120.0 168.0)"><path d="M188 1493H573V948L1128 1493H1575L856 786L1649 0H1167L573 588V0H188Z" fill="#D4213D" transform="translate(13.38,38) scale(0.01465,-0.01465)"/><path d="M50,88 C50,88 8,60 8,33 C8,18 19,8 32,8 C41,8 47,13 50,21 C53,13 59,8 68,8 C81,8 92,18 92,33 C92,60 50,88 50,88 Z" fill="#D4213D" transform="translate(25,58) scale(0.20000) translate(-50,-50)"/></g>
<path d="M96 0V121H287V1372H96V1493H864V1372H672V827L1305 1372H1145V1493H1702V1372H1503L967 911L1696 121H1843V0H1337L672 725V121H864V0Z" fill="#D4213D" transform="translate(67.85,182) scale(0.05859,-0.05859)"/><path d="M50,88 C50,88 8,60 8,33 C8,18 19,8 32,8 C41,8 47,13 50,21 C53,13 59,8 68,8 C81,8 92,18 92,33 C92,60 50,88 50,88 Z" fill="#D4213D" transform="translate(120.0,232) scale(0.44000) translate(-50,-50)"/>
</svg>