<svg xmlns="http://www.w3.org/2000/svg" viewBox="0 0 240 336" width="240" height="336">
<path d="M18,2 H222 A16,16 0 0 1 238,18 V318 A16,16 0 0 1 222,334 H18 A16,16 0 0 1 2,318 V18 A16,16 0 0 1 18,2 Z" fill="#FFFFFF" stroke="#E3E0D8" stroke-width="2"/>
<path d="M18,6 H222 A12,12 0 0 1 234,18 V318 A12,12 0 0 1 222,330 H18 A12,12 0 0 1 6,318 V18 A12,12 0 0 1 18,6 Z" fill="none" stroke="#1F2430" stroke-width="0.8" opacity="0.18"/>
<g><path d="M137 1493H1262V1276L680 0H305L856 1210H137Z" fill="#1F2430" transform="translate(14.56,38) scale(0.01465,-0.01465)"/><path d="M50,8 C50,8 12,40 12,60 C12,72 20,80 30,80 C37,80 43,76 47,70 C46,78 42,86 34,92 L66,92 C58,86 54,78 53,70 C57,76 63,80 70,80 C80,80 88,72 88,60 C88,40 50,8 50,8 Z" fill="#1F2430" transform="translate(25,58) scale(0.20000) translate(-50,-50)"/></g>
<g transform="rotate(180 120.0 168.0)"><path d="M137 1493H1262V1276L680 0H305L856 1210H137Z" fill="#1F2430" transform="translate(14.56,38) scale(0.01465,-0.01465)"/><path d="M50,8 C50,8 12,40 12,60 C12,72 20,80 30,80 C37,80 43,76 47,70 C46,78 42,86 34,92 L66,92 C58,86 54,78 53,70 C57,76 63,80 70,80 C80,80 88,72 88,60 C88,40 50,8 50,8 Z" fill="#1F2430" transform="translate(25,58) scale(0.20000) translate(-50,-50)"/></g>
<path d="M50,8 C50,8 12,40 12,60 C12,72 20,80 30,80 C37,80 43,76 47,70 C46,78 42,86 34,92 L66,92 C58,86 54,78 53,70 C57,76 63,80 70,80 C80,80 88,72 88,60 C88,40 50,8 50,8 Z" fill="#1F2430" transform="translate(84,84.0) scale(0.40000) translate(-50,-50)"/>
<path d="M50,8 C50,8 12,40 12,60 C12,72 20,80 30,80 C37,80 43,76 47,70 C46,78 42,86 34,92 L66,92 C58,86 54,78 53,70 C57,76 63,80 70,80 C80,80 88,72 88,60 C88,40 50,8 50,8 Z" fill="#1F2430" transform="translate(156,84.0) scale(0.40000) translate(-50,-50)"/>
<path d="M50,8 C50,8 12,40 12,60 C12,72 20,80 30,80 C37,80 43,76 47,70 C46,78 42,86 34,92 L66,92 C58,86 54,78 53,70 C57,76 63,80 70,80 C80,80 88,72 88,60 C88,40 50,8 50,8 Z" fill="#1F2430" transform="translate(120,126.0) scale(0.40000) translate(-50,-50)"/>
<path d="M50,8 C50,8 12,40 12,60 C12,72 20,80 30,80 C37,80 43,76 47,70 C46,78 42,86 34,92 L66,92 C58,86 54,78 53,70 C57,76 63,80 70,80 C80,80 88,72 88,60 C88,40 50,8 50,8 Z" fill="#1F2430" transform="translate(84,168.0) scale(0.40000) translate(-50,-50)"/>
<path d="M50,8 C50,8 12,40 12,60 C12,72 20,80 30,80 C37,80 43,76 47,70 C46,78 42,86 34,92 L66,92 C58,86 54,78 53,70 C57,76 63,80 70,80 C80,80 88,72 88,60 C88,40 50,8 50,8 Z" fill="#1F2430" transform="translate(156,168.0) scale(0.40000) translate(-50,-50)"/>
<path d="M50,8 C50,8 12,40 12,60 C12,72 20,80 30,80 C37,80 43,76 47,70 C46,78 42,86 34,92 L66,92 C58,86 54,78 53,70 C57,76 63,80 70,80 C80,80 88,72 88,60 C88,40 50,8 50,8 Z" fill="#1F2430" transform="translate(84,252.0) scale(0.40000) translate(-50,-50) rotate(180 50 50)"/>
<path d="M50,8 C50,8 12,40 12,60 C12,72 20,80 30,80 C37,80 43,76 47,70 C46,78 42,86 34,92 L66,92 C58,86 54,78 53,70 C57,76 63,80 70,80 C80,80 88,72 88,60 C88,40 50,8 50,8 Z" fill="#1F2430" transform="translate(156,252.0) scale(0.40000) translate(-50,-50) rotate(180 50 50)"/>
</svg>