<svg xmlns="http://www.w3.org/2000/svg" viewBox="0 0 240 336" width="240" height="336">
<path d="M18,2 H222 A16,16 0 0 1 238,18 V318 A16,16 0 0 1 222,334 H18 A16,16 0 0 1 2,318 V18 A16,16 0 0 1 18,2 Z" fill="#FFFFFF" stroke="#E3E0D8" stroke-width="2"/>
<path d="M18,6 H222 A12,12 0 0 1 234,18 V318 A12,12 0 0 1 222,330 H18 A12,12 0 0 1 6,318 V18 A12,12 0 0 1 18,6 Z" fill="none" stroke="#1F2430" stroke-width="0.8" opacity="0.18"/>
<g><path d="M713 668Q605 668 547.0 609.0Q489 550 489 440Q489 330 547.0 271.5Q605 213 713 213Q820 213 877.0 271.5Q934 330 934 440Q934 551 877.0 609.5Q820 668 713 668ZM432 795Q296 836 227.0 921.0Q158 1006 158 1133Q158 1322 299.0 1421.0Q440 1520 713 1520Q984 1520 1125.0 1421.5Q1266 1323 1266 1133Q1266 1006 1196.5 921.0Q1127 836 991 795Q1143 753 1220.5 658.5Q1298 564 1298 420Q1298 198 1150.5 84.5Q1003 -29 713 -29Q422 -29 273.5 84.5Q125 198 125 420Q125 564 202.5 658.5Q280 753 432 795ZM522 1094Q522 1005 571.5 957.0Q621 909 713 909Q803 909 852.0 957.0Q901 1005 901 1094Q901 1183 852.0 1230.5Q803 1278 713 1278Q621 1278 571.5 1230.0Q522 1182 522 1094Z" fill="#1F2430" transform="translate(14.56,38) scale(0.01465,-0.01465)"/><path d="M50,8 C50,8 12,40 12,60 C12,72 20,80 30,80 C37,80 43,76 47,70 C46,78 42,86 34,92 L66,92 C58,86 54,78 53,70 C57,76 63,80 70,80 C80,80 88,72 88,60 C88,40 50,8 50,8 Z" fill="#1F2430" transform="translate(25,58) scale(0.20000) translate(-50,-50)"/></g>
<g transform="rotate(180 120.0 168.0)"><path d="M713 668Q605 668 547.0 609.0Q489 550 489 440Q489 330 547.0 271.5Q605 213 713 213Q820 213 877.0 271.5Q934 330 934 440Q934 551 877.0 609.5Q820 668 713 668ZM432 795Q296 836 227.0 921.0Q158 1006 158 1133Q158 1322 299.0 1421.0Q440 1520 713 1520Q984 1520 1125.0 1421.5Q1266 1323 1266 1133Q1266 1006 1196.5 921.0Q1127 836 991 795Q1143 753 1220.5 658.5Q1298 564 1298 420Q1298 198 1150.5 84.5Q1003 -29 713 -29Q422 -29 273.5 84.5Q125 198 125 420Q125 564 202.5 658.5Q280 753 432 795ZM522 1094Q522 1005 571.5 957.0Q621 909 713 909Q803 909 852.0 957.0Q901 1005 901 1094Q901 1183 852.0 1230.5Q803 1278 713 1278Q621 1278 571.5 1230.0Q522 1182 522 1094Z" fill="#1F2430" transform="translate(14.56,38) scale(0.01465,-0.01465)"/><path d="M50,8 C50,8 12,40 12,60 C12,72 20,80 30,80 C37,80 43,76 47,70 C46,78 42,86 34,92 L66,92 C58,86 54,78 53,70 C57,76 63,80 70,80 C80,80 88,72 88,60 C88,40 50,8 50,8 Z" fill="#1F2430" transform="translate(25,58) scale(0.20000) translate(-50,-50)"/></g>
<path d="M50,8 C50,8 12,40 12,60 C12,72 20,80 30,80 C37,80 43,76 47,70 C46,78 42,86 34,92 L66,92 C58,86 54,78 53,70 C57,76 63,80 70,80 C80,80 88,72 88,60 C88,40 50,8 50,8 Z" fill="#1F2430" transform="translate(84,84.0) scale(0.40000) translate(-50,-50)"/>
<path d="M50,8 C50,8 12,40 12,60 C12,72 20,80 30,80 C37,80 43,76 47,70 C46,78 42,86 34,92 L66,92 C58,86 54,78 53,70 C57,76 63,80 70,80 C80,80 88,72 88,60 C88,40 50,8 50,8 Z" fill="#1F2430" transform="translate(156,84.0) scale(0.40000) translate(-50,-50)"/>
<path d="M50,8 C50,8 12,40 12,60 C12,72 20,80 30,80 C37,80 43,76 47,70 C46,78 42,86 34,92 L66,92 C58,86 54,78 53,70 C57,76 63,80 70,80 C80,80 88,72 88,60 C88,40 50,8 50,8 Z" fill="#1F2430" transform="translate(120,126.0) scale(0.40000) translate(-50,-50)"/>
<path d="M50,8 C50,8 12,40 12,60 C12,72 20,80 30,80 C37,80 43,76 47,70 C46,78 42,86 34,92 L66,92 C58,86 54,78 53,70 C57,76 63,80 70,80 C80,80 88,72 88,60 C88,40 50,8 50,8 Z" fill="#1F2430" transform="translate(84,168.0) scale(0.40000) translate(-50,-50)"/>
<path d="M50,8 C50,8 12,40 12,60 C12,72 20,80 30,80 C37,80 43,76 47,70 C46,78 42,86 34,92 L66,92 C58,86 54,78 53,70 C57,76 63,80 70,80 C80,80 88,72 88,60 C88,40 50,8 50,8 Z" fill="#1F2430" transform="translate(156,168.0) scale(0.40000) translate(-50,-50)"/>
<path d="M50,8 C50,8 12,40 12,60 C12,72 20,80 30,80 C37,80 43,76 47,70 C46,78 42,86 34,92 L66,92 C58,86 54,78 53,70 C57,76 63,80 70,80 C80,80 88,72 88,60 C88,40 50,8 50,8 Z" fill="#1F2430" transform="translate(120,210.0) scale(0.40000) translate(-50,-50) rotate(180 50 50)"/>
<path d="M50,8 C50,8 12,40 12,60 C12,72 20,80 30,80 C37,80 43,76 47,70 C46,78 42,86 34,92 L66,92 C58,86 54,78 53,70 C57,76 63,80 70,80 C80,80 88,72 88,60 C88,40 50,8 50,8 Z" fill="#1F2430" transform="translate(84,252.0) scale(0.40000) translate(-50,-50) rotate(180 50 50)"/>
<path d="M50,8 C50,8 12,40 12,60 C12,72 20,80 30,80 C37,80 43,76 47,70 C46,78 42,86 34,92 L66,92 C58,86 54,78 53,70 C57,76 63,80 70,80 C80,80 88,72 88,60 C88,40 50,8 50,8 Z" fill="#1F2430" transform="translate(156,252.0) scale(0.40000) translate(-50,-50) rotate(180 50 50)"/>
</svg>