<svg xmlns="http://www.w3.org/2000/svg" width="1024" height="1024" viewBox="0 0 1024 1024">
<rect width="1024" height="1024" fill="#1F2430"/>
<g transform="translate(512.0,512.0) rotate(-14) scale(6.16825) translate(-43.5,-27.5)">
<path d="M13.3466796875,1.3240966796875C9.29150390625,8.386474609375,0.07568359375,24.93896484375,0.001953125,25.233154296875C-0.034912109375,25.5274658203125,0.407470703125,25.8953857421875,3.209228515625,27.58740234375C5.19970703125,28.764404296875,6.637451171875,29.5736083984375,6.82177734375,29.536865234375C7.079833984375,29.5,8.8125,26.5206298828125,14.1943359375,16.9937744140625C18.065185546875,10.152099609375,21.198486328125,4.4139404296875,21.198486328125,4.2667236328125C21.16162109375,4.0093994140625,14.710693359375,0,14.342041015625,0C14.231201171875,0.0367431640625,13.7890625,0.625244140625,13.3466796875,1.3240966796875M69.12109375,2.059814453125C66.577392578125,3.604736328125,65.877197265625,4.11962890625,65.913818359375,4.4139404296875C65.913818359375,4.8553466796875,79.77490234375,29.3897705078125,80.1064453125,29.5736083984375C80.438232421875,29.757568359375,86.852294921875,25.8953857421875,87,25.453857421875C87.1474609375,25.0125732421875,73.102294921875,0.1470947265625,72.659912109375,0.1103515625C72.4755859375,0.073486328125,70.890625,0.956298828125,69.12109375,2.059814453125M15.74267578125,32.8841552734375C15.15283203125,33.2152099609375,13.088623046875,36.0474853515625,12.867431640625,36.81982421875C12.425048828125,38.401611328125,13.862548828125,40.35107421875,15.6689453125,40.68212890625C16.77490234375,40.90283203125,17.364501953125,40.4615478515625,18.765625,38.5855712890625C19.945068359375,37.0037841796875,20.055908203125,36.81982421875,20.055908203125,36.0474853515625C20.055908203125,34.980712890625,19.83447265625,34.392333984375,19.1708984375,33.6932373046875C18.175537109375,32.6634521484375,16.77490234375,32.3323974609375,15.74267578125,32.8841552734375M25.032470703125,33.546142578125C24.663818359375,33.7301025390625,23.63134765625,34.980712890625,21.493408203125,37.92333984375C19.83447265625,40.1671142578125,18.35986328125,42.22705078125,18.24951171875,42.484619140625C17.401611328125,44.066162109375,18.949951171875,46.53076171875,20.903564453125,46.714599609375C22.378173828125,46.8616943359375,22.5625,46.6778564453125,25.10595703125,43.1834716796875C29.4189453125,37.3349609375,29.234619140625,37.629150390625,29.234619140625,36.746337890625C29.234619140625,34.5025634765625,26.838623046875,32.7001953125,25.032470703125,33.546142578125M42.6162109375,6.98876953125C39.962158203125,7.2093505859375,37.234130859375,7.65087890625,35.83349609375,8.09228515625C34.76416015625,8.42333984375,34.4326171875,8.64404296875,33.953125,9.19580078125C32.994873046875,10.3359375,29.013671875,15.9638671875,27.87060546875,17.802978515625C26.87548828125,19.4215087890625,26.8017578125,19.6053466796875,26.764892578125,20.5986328125C26.764892578125,21.5916748046875,26.764892578125,21.665283203125,27.244140625,21.885986328125C27.87060546875,22.18017578125,29.82470703125,21.9227294921875,31.225341796875,21.3709716796875C33.2529296875,20.561767578125,35.83349609375,18.3916015625,37.197265625,16.3685302734375L37.787109375,15.485595703125L39.888427734375,14.8236083984375C41.031005859375,14.4556884765625,42.136962890625,14.1614990234375,42.3212890625,14.1614990234375C42.9111328125,14.1614990234375,50.0625,18.0238037109375,54.007080078125,20.4512939453125C57.803955078125,22.8055419921875,64.771240234375,27.7344970703125,68.7158203125,30.9345703125L70.706298828125,32.5531005859375L71.40673828125,32.1484375C72.5126953125,31.486328125,73.6923828125,30.5667724609375,75.240478515625,29.0218505859375L76.67822265625,27.58740234375L71.259033203125,18.0238037109375C68.31005859375,12.763671875,65.803466796875,8.386474609375,65.7666015625,8.3128662109375C65.69287109375,8.2393798828125,64.992431640625,8.3497314453125,64.21826171875,8.5335693359375C62.30126953125,9.0118408203125,60.71630859375,8.9014892578125,56.91943359375,8.0555419921875C52.495849609375,7.0255126953125,50.7998046875,6.841552734375,47.2978515625,6.841552734375C45.638916015625,6.841552734375,43.53759765625,6.9151611328125,42.6162109375,6.98876953125M15.59521484375,18.2076416015625L10.02880859375,28.0655517578125L10.91357421875,29.095458984375C11.392822265625,29.6839599609375,12.1669921875,30.640380859375,12.64599609375,31.192138671875C13.088623046875,31.7806396484375,13.493896484375,32.2587890625,13.531005859375,32.2587890625C13.567626953125,32.2587890625,13.936279296875,32.0013427734375,14.342041015625,31.670166015625C16.62744140625,29.9415283203125,19.945068359375,30.8978271484375,21.3828125,33.6566162109375L21.75146484375,34.5025634765625L22.525390625,33.47265625C23.520751953125,32.1484375,24.51611328125,31.5966796875,26.064453125,31.5966796875C28.755615234375,31.5966796875,30.96728515625,33.8037109375,31.004150390625,36.5625L31.004150390625,37.7027587890625L31.630859375,37.7027587890625C32.58935546875,37.7027587890625,34.28515625,38.6590576171875,35.022216796875,39.6522216796875C35.759521484375,40.608642578125,36.23876953125,42.00634765625,36.128173828125,42.9627685546875L36.091552734375,43.624755859375L36.865478515625,43.7352294921875C38.59814453125,43.9925537109375,40.109375,45.0594482421875,40.8837890625,46.604248046875C41.694580078125,48.1859130859375,41.62109375,49.9146728515625,40.662353515625,51.3125C40.330810546875,51.7906494140625,40.146484375,52.232177734375,40.219970703125,52.3056640625C40.293701171875,52.3792724609375,40.8466796875,52.5999755859375,41.473388671875,52.7838134765625C45.49169921875,54.0712890625,48.809326171875,54.365478515625,50.43115234375,53.5562744140625C51.316162109375,53.1148681640625,52.93798828125,51.5699462890625,52.827392578125,51.2757568359375C52.79052734375,51.165283203125,50.873779296875,50.1722412109375,48.514404296875,49.0687255859375C46.19189453125,47.928466796875,44.201416015625,46.935302734375,44.127685546875,46.824951171875C43.86962890625,46.4202880859375,43.980224609375,45.8685302734375,44.422607421875,45.6112060546875C44.827880859375,45.3536376953125,44.938720703125,45.390380859375,49.472900390625,47.597412109375C54.375732421875,49.98828125,54.9287109375,50.1722412109375,56.661376953125,49.9146728515625C57.730224609375,49.7308349609375,58.541259765625,49.031982421875,58.873046875,47.8916015625C59.352294921875,46.31005859375,59.68408203125,46.604248046875,53.7490234375,43.1834716796875C50.76318359375,41.45458984375,48.219482421875,39.9097900390625,48.03515625,39.7625732421875C47.850830078125,39.6153564453125,47.740234375,39.3580322265625,47.740234375,39.2108154296875C47.740234375,38.8062744140625,48.40380859375,38.2545166015625,48.7724609375,38.3280029296875C48.956787109375,38.3648681640625,51.61083984375,39.8729248046875,54.70751953125,41.6385498046875C60.27392578125,44.838623046875,60.310546875,44.87548828125,61.343017578125,44.87548828125C62.63330078125,44.87548828125,63.33349609375,44.617919921875,64.07080078125,43.9559326171875C64.734375,43.33056640625,64.992431640625,42.55810546875,64.91845703125,41.417724609375L64.8818359375,40.57177734375L58.4306640625,36.6727294921875C54.891845703125,34.5394287109375,51.869140625,32.6265869140625,51.721435546875,32.4427490234375C51.537109375,32.185302734375,51.537109375,32.0013427734375,51.684814453125,31.670166015625C52.090087890625,30.82421875,52.532470703125,31.0081787109375,59.83154296875,35.422119140625L66.76171875,39.57861328125L68.052001953125,39.5418701171875C69.04736328125,39.505126953125,69.452880859375,39.3946533203125,69.895263671875,39.1004638671875C71.148681640625,38.180908203125,71.517333984375,36.304931640625,70.63232421875,35.017578125C70.07958984375,34.1715087890625,68.01513671875,32.4794921875,63.554931640625,29.1322021484375C56.292724609375,23.72509765625,51.021240234375,20.3778076171875,43.943359375,16.736328125L42.3583984375,15.9271240234375L40.77294921875,16.4051513671875L39.187744140625,16.8834228515625L37.971435546875,18.3179931640625C35.1328125,21.8492431640625,31.225341796875,23.94580078125,27.76025390625,23.7618408203125C26.43310546875,23.6883544921875,25.9169921875,23.4676513671875,25.25341796875,22.548095703125C24.958740234375,22.18017578125,24.884765625,21.8492431640625,24.921630859375,20.85595703125C24.921630859375,19.0535888671875,25.58544921875,17.7662353515625,28.681640625,13.3890380859375C29.4560546875,12.2855224609375,30.08251953125,11.3292236328125,30.08251953125,11.255615234375C30.08251953125,11.1820068359375,29.160888671875,10.9981689453125,28.018310546875,10.814208984375C25.290283203125,10.4095458984375,24,10.0050048828125,22.48876953125,9.0853271484375C21.8251953125,8.6807861328125,21.2353515625,8.3497314453125,21.198486328125,8.3497314453125C21.16162109375,8.3497314453125,18.65478515625,12.763671875,15.59521484375,18.2076416015625M30.15625,39.6522216796875C29.677001953125,39.9097900390625,25.14306640625,45.831787109375,24.663818359375,46.8616943359375C23.889404296875,48.5538330078125,25.364013671875,50.907958984375,27.31787109375,51.091796875C28.755615234375,51.2388916015625,28.9765625,51.0550537109375,31.29931640625,47.8548583984375C34.3955078125,43.5880126953125,34.32177734375,43.7352294921875,34.32177734375,42.741943359375C34.32177734375,41.6385498046875,33.805908203125,40.7188720703125,32.88427734375,40.056884765625C32.036376953125,39.46826171875,30.8935546875,39.284423828125,30.15625,39.6522216796875M35.317138671875,45.831787109375C34.6904296875,46.1995849609375,31.66796875,50.356201171875,31.446533203125,51.128662109375C31.077880859375,52.3424072265625,31.92578125,53.9976806640625,33.363525390625,54.696533203125C34.174560546875,55.1011962890625,34.985595703125,55.1011962890625,35.685791015625,54.696533203125C36.349365234375,54.3287353515625,39.4091796875,50.2825927734375,39.6669921875,49.3997802734375C39.925048828125,48.5538330078125,39.63037109375,47.5238037109375,38.8193359375,46.6409912109375C37.787109375,45.5374755859375,36.3125,45.169677734375,35.317138671875,45.831787109375" fill="#E3E2DF" stroke="#1F2430" stroke-width="1.3" stroke-linejoin="round" stroke-linecap="round"/>
<path d="M40.489013671875,21.1025390625C40.489013671875,21.1025390625,48.118896484375,27.5137939453125,48.118896484375,31.520751953125C48.118896484375,33.925048828125,46.5126953125,35.52783203125,44.5048828125,35.52783203125C43.09912109375,35.52783203125,41.89453125,34.726318359375,41.09130859375,33.5242919921875C41.292236328125,35.1270751953125,42.095458984375,36.72998046875,43.70166015625,37.9320068359375L37.276611328125,37.9320068359375C38.8828125,36.72998046875,39.68603515625,35.1270751953125,39.886962890625,33.5242919921875C39.083740234375,34.726318359375,37.87890625,35.52783203125,36.473388671875,35.52783203125C34.465576171875,35.52783203125,32.859375,33.925048828125,32.859375,31.520751953125C32.859375,27.5137939453125,40.489013671875,21.1025390625,40.489013671875,21.1025390625" fill="#D4213D" stroke="#1F2430" stroke-width="1.1700000000000002" stroke-linejoin="round"/>
</g>
</svg>